<svg width="167" height="26" viewBox="0 0 167 26" fill="none" xmlns="http://www.w3.org/2000/svg">
<path d="M0.0420003 25V0.844H15.792V5.83H5.802V10.564H14.748V15.478H5.802V25H0.0420003ZM26.3333 0.844V19.96H35.4593V25H20.5733V0.844H26.3333ZM49.2998 25.576C47.0078 25.576 45.0038 25.096 43.2878 24.136C41.5838 23.164 40.2578 21.736 39.3098 19.852C38.3618 17.956 37.8878 15.622 37.8878 12.85C37.8878 10.006 38.3618 7.66 39.3098 5.812C40.2578 3.952 41.5838 2.572 43.2878 1.672C45.0038 0.759999 47.0078 0.303998 49.2998 0.303998C51.6158 0.303998 53.6318 0.777998 55.3478 1.726C57.0758 2.674 58.4138 4.078 59.3618 5.938C60.3098 7.798 60.7838 10.102 60.7838 12.85C60.7838 15.67 60.3098 18.028 59.3618 19.924C58.4138 21.808 57.0758 23.224 55.3478 24.172C53.6318 25.108 51.6158 25.576 49.2998 25.576ZM49.2998 20.41C50.9798 20.41 52.3238 19.75 53.3318 18.43C54.3398 17.098 54.8438 15.226 54.8438 12.814C54.8438 10.546 54.3398 8.758 53.3318 7.45C52.3238 6.13 50.9798 5.47 49.2998 5.47C47.6678 5.47 46.3478 6.13 45.3398 7.45C44.3318 8.758 43.8278 10.558 43.8278 12.85C43.8278 15.238 44.3318 17.098 45.3398 18.43C46.3478 19.75 47.6678 20.41 49.2998 20.41ZM62.5363 0.844H68.9443L74.3623 19.924H73.0303L78.1603 1.564H82.0483L87.7003 19.492H86.5303L91.6423 0.844H98.1763L90.1123 25H84.0463L80.1583 12.832H80.4103L76.7023 25H70.6543L62.5363 0.844ZM101.397 25V0.844H117.543V5.83H107.157V10.474H116.895V15.478H107.157V19.96H117.543V25H101.397ZM123.476 25V0.844H132.908C135.932 0.844 138.278 1.54 139.946 2.932C141.626 4.312 142.466 6.166 142.466 8.494C142.466 10.774 141.626 12.604 139.946 13.984C138.278 15.352 135.932 16.036 132.908 16.036H129.236V25H123.476ZM136.076 25L130.19 13.336H136.274L143.618 25H136.076ZM129.236 12.292H132.26C133.688 12.292 134.756 11.998 135.464 11.41C136.184 10.81 136.544 10.048 136.544 9.124C136.544 8.164 136.238 7.378 135.626 6.766C135.026 6.142 134.12 5.83 132.908 5.83H129.236V12.292ZM156.894 25.576C155.166 25.576 153.564 25.288 152.088 24.712C150.612 24.124 149.412 23.212 148.488 21.976C147.564 20.728 147.054 19.108 146.958 17.116H152.646C152.646 17.848 152.832 18.454 153.204 18.934C153.576 19.414 154.08 19.768 154.716 19.996C155.364 20.224 156.078 20.338 156.858 20.338C157.482 20.338 158.064 20.284 158.604 20.176C159.156 20.068 159.6 19.876 159.936 19.6C160.272 19.324 160.44 18.946 160.44 18.466C160.44 17.878 160.26 17.44 159.9 17.152C159.552 16.864 158.916 16.534 157.992 16.162L152.736 13.876C151.008 13.132 149.664 12.256 148.704 11.248C147.744 10.24 147.264 8.866 147.264 7.126C147.264 5.086 148.092 3.442 149.748 2.194C151.416 0.933998 153.696 0.303998 156.588 0.303998C159.528 0.303998 161.784 0.999999 163.356 2.392C164.928 3.772 165.81 5.746 166.002 8.314H160.35C160.206 7.522 159.852 6.856 159.288 6.316C158.736 5.776 157.836 5.506 156.588 5.506C155.688 5.506 154.962 5.674 154.41 6.01C153.858 6.334 153.582 6.742 153.582 7.234C153.582 7.69 153.756 8.05 154.104 8.314C154.464 8.578 154.998 8.866 155.706 9.178L161.268 11.536C163.116 12.34 164.49 13.282 165.39 14.362C166.302 15.442 166.758 16.738 166.758 18.25C166.758 19.87 166.368 21.226 165.588 22.318C164.82 23.398 163.698 24.214 162.222 24.766C160.758 25.306 158.982 25.576 156.894 25.576Z" fill="white" fill-opacity="0.75"/>
</svg>
